<svg version="1.2" xmlns="http://www.w3.org/2000/svg" viewBox="0 0 2273 967" width="100%" height="100%">
	<title>Original Logo-svg</title>
	<style>
		.s0 {
			fill: #0d0d0d;
			opacity: 0
		}

		.s1 {
			fill: #a16d2d
		}

		.s2 {
			fill: #d2a246
		}

		.s3 {
			fill: #a56f2e
		}

		.s4 {
			fill: #ebc75c
		}

		.s5 {
			fill: #ecc85c
		}

		.s6 {
			fill: #ecc95c
		}

		.s7 {
			fill: #f0cc5d
		}

		.s8 {
			fill: #ebc85c
		}

		.s9 {
			fill: #ebc75b
		}

		.s10 {
			fill: #e8c55b
		}

		.s11 {
			fill: #edca5d
		}

		.s12 {
			fill: #e9c55b
		}

		.s13 {
			fill: #eeca5d
		}

		.s14 {
			fill: #d6a447
		}

		.s15 {
			fill: #10100e;
			opacity: 0
		}

		.s16 {
			fill: #0f0f0e;
			opacity: 0
		}

		.s17 {
			fill: #141410;
			opacity: 0
		}

		.s18 {
			fill: #100f0e;
			opacity: 0
		}
	</style>
	<path id="Layer" fill-rule="evenodd" class="s0"
		d="m1371 1233c-550.6 0-1100.2 0-1649.9 0 0-504.5 0-1009.1 0-1513.8 943 0 1886.1 0 2829.6 0 0 504.5 0 1009.1 0 1513.8-392.8 0-785.7 0-1179.7 0zm-1.4-1181.6c-16.5 15.7-31.8 32.3-44.9 50.9-34 48.3-52.8 102.1-56.8 161-0.4 5.6-1.9 9.7-6.3 13.7-9.6 8.8-9.9 23.9 0.1 31.8 6.4 5.1 8 10.9 8.8 17.8 0.4 3.3 0.8 6.6 1.5 9.9 17.3 91.4 65.4 162 143.8 211.9 4.8 3.1 7.3 6.2 8 12.4 2 17.7 20.1 25.8 35.2 16.3 1.9-1.2 3.8-2.5 5.6-3.8 3.5 1.3 6.6 2.4 9.8 3.5 27.7 10 56.4 16.2 85.8 17.7 85.1 4.3 160.3-21.1 225-76.8 4.5-3.9 8.3-5.9 14.9-5.1 15.2 2 27.4-11.3 24.2-26.3-1.3-6 0.1-9.9 3.6-14.4 20.5-26.6 36.2-55.9 47.1-87.7 16.4-47.8 20.8-96.8 13.7-146.8-0.8-5.3 0-9.3 3-14 2.8-4.4 4.3-10.6 4-15.9-0.6-10.7-9.9-18.8-20.6-19.6-10.2-0.8-19.8 5.8-23 15.7-3.3 9.9 0.2 21.1 9.7 25.8 7.3 3.6 9.2 8.6 9.6 15.7 0.5 11.7 2 23.3 2.1 34.9 0.7 66.6-19.4 126.5-59.1 179.9-3.5 4.7-7 7.8-13.7 8.1-11.7 0.6-20.9 9.3-20.6 20.5 0.2 8.8-3.9 13.4-9.7 18.1-88.1 71-185.7 88.2-292.9 52.1-5.3-1.8-8.8-4.6-11.3-10.1-4.3-9.6-13.9-14.7-23.9-11.9-7.2 1.9-12.2-0.5-17.6-4-76.6-49.4-122.3-118.9-136.4-209.1-0.9-6.2-0.3-10.3 4.6-14.8 9.3-8.5 9.8-23.4 0.4-31.2-6.9-5.6-7.9-11.5-6.7-19.1 0.5-3.2 0.4-6.6 0.8-9.9 8.9-70.1 38.6-129.7 89.3-178.8 4.5-4.4 8.5-6.9 15.6-5.9 12.1 1.7 22.7-8.7 23.4-20.9 0.7-12.9-8.9-23.5-21.6-24-12.4-0.4-22.6 8.8-23.3 21.2-0.2 3.3-0.2 6.6-1.2 11.2zm17 80.3c55.6-67.5 126.8-99.1 214.4-93.2 7.4 0.5 12.6 1.9 17.2 8.9 6.7 10.3 21.3 11.4 31.1 3.9 9.9-7.8 11.6-22.3 3.7-32.1-7.8-9.6-22.1-11.9-31.1-3.4-5.8 5.3-11.3 5.6-18.1 4.9-31.1-3.5-61.8-0.5-92 7.6-166 44.8-245.3 232-162.1 382.3 3 5.4 3.5 9.6 1.7 15.7-4.5 14.4 5.8 28.4 20.7 28.4 6.5 0 10.3 2.2 14.4 6.6 49.7 52.5 110.5 81.6 183 84.1 81.7 2.8 150.4-26.7 205.6-86.9 13-14.1 23.6-30.5 36.1-46.9 16.4-3.6 25.2-15 21.1-29.2-3.7-12.5-17.1-19.4-29.4-15.1-14 4.8-17.9 18.1-10.6 36.8-0.7 1.4-1.4 2.9-2.2 4.3-86.1 141.9-280.1 159.7-390.8 40.3-3.6-3.9-5.2-7.5-4.4-13.2 1.9-13.2-5.3-22.8-18.4-25.3-5.2-0.9-8.2-3-10.7-7.4-17.2-31.1-27.7-64.2-30.4-99.6-4.8-63 11.9-120 51.2-171.5zm391.8 219.9c5.7-17.1 9.8-34.6 10.8-52.6 0.3-6.8 1.2-12.5 6.4-18 8.4-9.1 6.1-23.4-3.5-31.1-9.5-7.7-23.5-6.4-31.4 2.9-8 9.4-7.2 23.1 2.2 31.4 2.4 2.2 5.4 3.8 8 5.6 0.7 78-60 158.9-141 177.6-16.6-16.2-33-12-42.8 6.7-72.7 5.4-162.8-40.5-191.6-136.4-28.2-94.3 19.4-184.6 90.5-222.4 3 1.3 5.9 2.9 9.1 3.8 11.9 3.4 24.4-3.5 27.7-15 3.4-12-3-24.2-14.7-28.1-11.4-3.9-25.2 2.1-28 14-1.8 7.6-6.2 10.8-11.9 14.3-74.7 46.7-112.6 135.3-94.7 220.9 20.7 98.2 107 168 207.3 167.7 5.7 0 10.5 0.5 15.4 4.7 10.2 8.9 25 6.7 32.1-4.8 3.4-5.4 7.7-7.5 13.1-9.2 66.3-21.7 111.7-65.3 137-132zm-101.6-111.9c-33.5-19.6-67.1-39.1-101-58.9-33.8 19.6-67.4 39.1-102.2 59.6-0.1 0.7-0.4 1.3-0.4 2 0 36.6 0 73.1-0.2 109.7 0 5.1 2.1 7.8 6.3 10.1 29.7 17.1 59.5 34.1 88.9 51.5 5.8 3.4 10 2.9 15.5-0.3 28.9-17 58-33.8 87.2-50.3 5.8-3.3 7.7-7.1 7.6-13.5-0.3-33.3-0.1-66.6-0.2-99.8 0-3-0.7-5.9-1.5-10.1zm-173.4 470.2c-19.7 43.9-39.3 87.9-60 134-21.6-48.2-42.4-94.5-63-140.4-8.4 0-15.9 0-23.9 0 0 56.7 0 112.9 0 169.3 7.6 0 14.7 0 22.2 0 0-14.1 0-27.4 0-40.7 0-13.7-0.2-27.3 0-41 0.2-13-0.8-26 2.3-39.2 18.1 40.5 36.3 81.1 54.3 121.2 5.9 0 10.8 0 16.2 0 6-13.5 12-26.8 17.9-40.2 6.1-13.6 12.1-27.4 18.4-41 5.9-13 11.1-26.4 17.8-39.1q1.2 0.3 2.4 0.6 0 59.7 0 119.3c8.2 0 15.2 0 22.2 0 2-32.9 1.1-161.6-1.3-169.8-5.8 0-11.8 0.3-17.8 0-4.3-0.2-5.9 2.2-7.7 7zm-662.7 199.8c-10.6 9.8-23.4 12.4-37.2 10.6-17-2.2-29.8-10.7-36-26.6-7.6 0-14.1 0-21.5 0 2.2 15.9 10 27.3 22.8 35.3 17.1 10.9 36 13.4 55.7 10.1 25-4.2 41.7-18.4 48.5-43.1 1.8-6.3 2.4-13.1 2.4-19.7 0.2-43.4 0.2-86.7 0.2-130 0-2.3 0-4.5 0-6.9-8.1 0-15.1 0-23 0 0 6.9 0 13.1 0 20.7-2.1-1.8-3.2-2.4-3.9-3.3-24.7-32.1-90.2-28.9-106.6 24.1-5.1 16.6-5.1 33.5 0.3 50.2 7.5 23 22.8 38.5 46.7 43.3 23.5 4.7 44.4-1 60.1-20.4 0.7-0.8 1.8-1.4 3.6-2.7 0 11.3 0.4 21.3-0.2 31.2-0.5 9.8-3.9 18.9-11.9 27.2zm-188.4-37.5c-13.7-23.3-27.4-46.7-41.2-70.2 4.5-1.7 8-2.8 11.4-4.2 13.4-5.6 22.4-15.6 26.5-29.4 8.2-28.2-3.5-60.4-42.6-65.1-22.7-2.8-45.8-1.7-69.4-2.3 0 58 0 114.8 0 171.7 7.3 0 14.3 0 21.8 0 0-12.1 0-23.4 0-34.7 0-11.2 0-22.5 0-34.2 9.6 0 18.1 0 27.2 0 9.8 16.8 19.6 33.9 29.6 50.7 3.9 6.5 7.1 15.1 12.9 18.1 6 3.2 15 0.6 23.8-0.4zm-313.1-6.3c18.5 11.3 38.5 12.5 58.7 6.8 17.7-4.9 30.2-16.4 37.5-33.4 0.8-1.9 1.1-4.2 1.8-6.8-8.3 0-15.8 0-23 0-12.4 21.7-31.3 29.3-53.3 22.1-17.5-5.8-29-22.2-27.3-40 35.1 0 70.3 0 105.9 0 2.9-16 1.1-30.5-5.5-44.4-20.7-43.7-86.5-43.3-111.4-9.6-19.9 26.9-20.2 81.4 16.6 105.3zm574.3-169.2c0 58.6 0 117.2 0 176.2 8 0 15.1 0 22.8 0 0-22.7 0-44.7 0.1-66.6 0-6 0-12 0.7-18 2.4-19.7 16.3-32.1 36.4-32.8 20.3-0.7 34.4 10.5 38 30.6 0.8 4.6 1.1 9.3 1.1 13.9 0.2 21 0.1 42 0.1 62.9 0 3.3 0 6.6 0 10.2 7.8 0 14.6 0 21.8 0 0-29.8 1.2-59.1-0.3-88.3-1.4-25.2-15.9-41.9-38-46.9-20.6-4.6-39.8-1.7-55.6 13.9-0.7 0.8-1.7 1.3-4.4 3.2 0-22.4 0-42.8 0-63.9-6.8 0-12.4 0-18 0-2.7-0.1-4.6 0.7-4.7 5.6zm-754.2 97.3c0 26.2 0 52.4 0 78.8 8.1 0 15.2 0 22.6 0 0-10.2 0-19.5 0.1-28.8 0.1-17.6-0.5-35.3 0.8-52.9 1.9-25.7 21.4-39.6 46.6-34.7 15.1 3 24.1 12.2 27.4 26.9 1.3 5.8 1.6 11.9 1.7 17.8 0.2 21 0.1 42 0.1 63 0 2.9 0.2 5.8 0.4 8.9 7.5 0 14.3 0 21.5 0 0-29.2 0.9-57.8-0.3-86.4-0.9-21.3-10.5-39-31.8-46.5-22.2-7.9-43.3-5.6-61.4 11.2-1.1 0.9-2.3 1.6-5.2 3.5 0-22.2 0-42.7 0-63.1-8 0-14.8 0-21.4 0-0.5 1.2-0.9 1.8-0.9 2.4-0.1 32.6-0.1 65.3-0.2 99.9zm1536.8 22.9c1.6-11.1 0.9-22-2.2-32.7-13.3-46.8-62.7-56.3-94.9-41.9-25.4 11.4-37.4 32.2-38.6 59.4-1.2 27.6 7.4 50.8 32.3 65.3 35.4 20.5 94.3 6.7 103.4-50.1zm466.8-16.5c-2.1-27.1-14.4-47.4-39.8-58.7-11.5-5.1-23.8-6.2-36.3-4.9-27.3 2.9-46.6 16.8-56 42.9-6.2 17.2-6 34.7-0.3 52 8.6 26.4 30.7 42.5 59.4 44 33.5 1.7 61.5-17.1 70-47.8 2.2-8.2 2.1-17.1 3-27.5zm-436.4 7.6c0 21.6 0 43.1 0 65.1 7.9 0 14.7 0 22.4 0 0-4.1 0-7.7 0-11.3 0-22.3-0.3-44.7 0.2-67 0.4-15.9 6.1-29.4 22-36.1 26.9-11.4 52.8 4.7 53.9 33.8 0.6 17 0.1 34 0.2 51 0 9.6 0 19.3 0 29.5 7.4 0 14.3 0 21.1 0 0.4-0.8 0.9-1.4 0.9-2 0-28.7 0.7-57.4-0.4-86-0.8-20.9-11.1-37.2-31.4-44.7-20.9-7.6-41.2-6.2-59.2 8.7-2.1 1.8-4.1 3.6-6.9 6-0.3-6.2-0.6-11-0.9-15.6-7.7 0-14.5 0-21.9 0 0 22.6 0 44.6 0 68.6zm-567.7-45.4c-5.7 19.7 1 35 19.3 43.8 3.9 1.9 8 3.3 12.1 4.6 7 2.2 14.1 3.9 21.1 6.2 5.7 1.8 11.5 3.6 16.7 6.4 9.7 5 11.7 16.3 4.3 24.4-2.8 3-6.8 5.5-10.7 6.9-19.4 6.8-36.1-0.8-45.6-20.4-6.8 0-13.7 0-21.2 0-0.6 10.9 4.3 19 11.2 25.9 18.4 18.4 57.1 20.9 77.9 5.2 12.7-9.5 17.7-24.4 13.1-39-3.4-10.6-11.3-17.3-21.2-21.1-10.2-4-20.9-6.8-31.2-10.3-5.7-1.9-11.4-4-16.6-6.8-5.9-3.2-9.3-8.6-8.7-15.7 0.6-7 4.7-11.5 10.9-14.3 14.2-6.7 40.8-4.1 44.9 18.6 0.1 0.5 0.8 0.9 1.6 1.8 2.9 0 6.3 0.1 9.6 0 3.5-0.1 6.9-0.3 10.4-0.4-0.7-19.5-11.5-33.6-29.8-39.2-13.1-3.9-26.3-4-39.5-0.3-12.4 3.4-22.3 10.2-28.6 23.7zm-1096.2-8.6c0 39.6 0 79.1 0 119.1 7.8 0 14.7 0 22.5 0 0-50.9 0-101.4 0-152.9 15.8 0 30.6 0 45.9 0 0-6.8 0-12.5 0-18.1-26.8-2-108.1-1.1-115.3 1.2 0 5.2 0 10.4 0 16.8 15.6 0 30.8 0 46.9 0 0 11.4 0 21.7 0 33.9zm1914.2 96.5c-1.4-4-3.9-7.9-3.9-11.9-0.3-26.3-0.1-52.7 0-79 0-0.6 0.5-1.1 1.2-2.4q15.8 0 32.7 0c0-6.5 0-12.3 0-18.8-11.5 0-22.4 0-34 0 0-11.3 0-21.9 0-33.2-7.9 0-15 0-23.4 0 0 11.2 0 22 0 33-6.1 0.3-11 0.6-16.1 0.8 0 6.2 0 11.9 0 17.7 5.6 0.3 10.5 0.5 16 0.8 0.2 3.8 0.4 7 0.4 10.3 0.1 21.3 0 42.6 0.1 64 0.1 5.6 0.3 11.3 1.3 16.9 1.9 11.5 8.3 19.4 19.8 22.7 12 3.5 24.1 1.8 36.1 2.1 0-6.9 0-12.5 0-17.3-10.1-1.6-19.5-3.1-30.2-5.7zm-892.4-145.9c-2.3 0.2-4.6 0.3-8 0.6 0 11 0 21.8 0 33-6.2 0.3-11.4 0.7-16.8 1 0 6.1 0 11.6 0 17.4 5.7 0.3 10.9 0.6 17.1 1 0 3.7 0 7 0 10.2 0 22-0.1 44 0 66 0 4.3 0 8.7 0.6 13 1.9 13.1 9 22.1 22.2 25.2 11.4 2.6 22.9 1.4 34.3 1.4 0-6.9 0-12.4 0-18.9-7.3 0-14 0.5-20.6-0.1-9.5-0.9-13.3-5.4-14.1-15-0.1-1.6-0.1-3.3-0.1-5 0-23 0-46 0-69 0.1-2.5 0.4-5.1 0.7-8.7 11.7 0 22.8 0 34 0 0-6.5 0-12 0-18.6-11.9 0-23.1 0-34.9 0 0-11.6 0-22.2 0-33.5-4.7 0-8.7 0-14.4 0zm1108.3 153.2c0 5 0 9.9 0 15.3 7.7 0 14.6 0 22.4 0 0-3.7 0-6.9 0-10.2 0-20.6-0.1-41.3 0.1-61.9 0.1-5.6 0.6-11.3 1.9-16.8 3.1-12.8 11-21.1 24.1-23.6 5.5-1.1 11.1-1.5 17.1-2.2 0-7.2 0-14.3 0-21.9-8.7-0.5-16.7 0.4-23.6 4.7-6.8 4.2-12.7 9.7-20.1 15.4 0-6.5 0-11.9 0-17.2-7.7 0-14.5 0-21.9 0 0 39.3 0 77.9 0 118.4zm-1506.3-11.8c0 8.9 0 17.8 0 27.1 7.8 0 14.7 0 21.7 0 0-45 0-89.4 0-133.7-7.5 0-14.3 0-21.7 0 0 35.3 0 69.9 0 106.6zm1198-93.6c0 40.1 0 80.2 0 120.7 7.9 0 14.7 0 21.9 0 0-44.8 0-89.2 0-134-7.4 0-14.3 0-21.9 0 0 4.1 0 7.8 0 13.3zm-146.9-561.9c0-6 0.3-12-0.1-18-0.2-2.2-1.7-5.1-3.6-6.3-6.3-4.2-13.1-7.7-19.3-11.3-25.2 11.9-25.3 11.9-24.3 34.7 0 0.7-0.3 1.5 0 2 1.2 2.2 2.1 5 3.9 6.2 6.4 4.2 13.2 7.7 19.8 11.6 6.8-3.9 13.2-7.3 19.4-11.3 1.9-1.2 2.8-4 4.2-7.6zm-22.6-119.5c0 18.6 0 18.6 14.9 26 0.6 0.3 1.1 0.9 1.7 0.9 2.2 0 4.7 0.5 6.5-0.3 4.5-2.1 8.9-4.6 13-7.5 1.6-1.2 3-3.6 3.2-5.6 0.5-5 0.5-10 0-15-0.2-2-2.1-3.8-3.2-5.7-0.2-0.3-0.6-0.4-0.9-0.6-13.7-9.6-15.8-9.7-29.9-0.4-2.2 1.4-3.5 4.3-5.3 8.2zm175.3 616c-2.1 1.6-4.6 2.9-6.3 4.8-4.1 4.8-4.3 12.5-0.9 17.7 3.4 5.2 9.7 8 15.5 6.8 6.4-1.3 11.2-6.5 12.1-13.1 1.4-9.2-7.4-20.2-20.4-16.2zm-1179 20.7c0.5-2.5 1.5-5.2 1.4-7.7-0.5-8.2-7.4-14.2-15.4-14-8.1 0.3-14.3 6.5-14.5 14.7-0.2 8.3 5.5 15.1 13.5 15.8 6.2 0.5 11-2.2 15-8.8zm1090.7-585.2c2.6 1.3 5.2 2.7 7.9 4q7.3-4.3 13.6-8c0-3.7 0-6.3-0.1-9 0-2.6-0.3-5.2-0.4-7.4-15.1-8.8-10.5-10.7-27.8 0.9 0 3.2 0.3 6.9-0.1 10.5-0.5 4.5 2.1 6.6 6.9 9zm28.4-77.5c2.5-1.6 5-3.2 7.1-4.5 0.7-17.1 0.7-17.1-13.7-23.7-16.9 8.3-15 5.5-13.7 23.9 2.9 1.8 6.2 3.4 9.1 5.6 3.6 2.7 6.7 1.7 11.2-1.3z" />
	<path id="Layer" class="s1"
		d="m1370.1 50.8c0.5-4 0.5-7.3 0.7-10.6 0.7-12.4 10.9-21.6 23.3-21.2 12.7 0.5 22.3 11.1 21.6 24-0.7 12.2-11.3 22.6-23.4 20.9-7.1-1-11.1 1.5-15.6 5.9-50.7 49.1-80.4 108.7-89.3 178.8-0.4 3.3-0.3 6.7-0.8 9.9-1.2 7.6-0.2 13.5 6.7 19.1 9.4 7.8 8.9 22.7-0.4 31.2-4.9 4.5-5.5 8.6-4.6 14.8 14.1 90.2 59.8 159.7 136.4 209.1 5.4 3.5 10.4 5.9 17.6 4 10-2.8 19.6 2.3 23.9 11.9 2.5 5.5 6 8.3 11.3 10.1 107.2 36.1 204.8 18.9 292.9-52.1 5.8-4.7 9.9-9.3 9.7-18.1-0.3-11.2 8.9-19.9 20.6-20.5 6.7-0.3 10.2-3.4 13.7-8.1 39.7-53.4 59.8-113.3 59.1-179.9-0.1-11.6-1.6-23.2-2.1-34.9-0.4-7.1-2.3-12.1-9.6-15.7-9.5-4.7-13-15.9-9.7-25.8 3.2-9.9 12.8-16.5 23-15.7 10.7 0.8 20 8.9 20.6 19.6 0.3 5.3-1.2 11.5-4 15.9-3 4.7-3.8 8.7-3 14 7.1 50 2.7 99-13.7 146.8-10.9 31.8-26.6 61.1-47.1 87.7-3.5 4.5-4.9 8.4-3.6 14.4 3.2 15-9 28.3-24.2 26.3-6.6-0.8-10.4 1.2-14.9 5.1-64.7 55.7-139.9 81.1-225 76.8-29.4-1.5-58.1-7.7-85.8-17.7-3.2-1.1-6.3-2.2-9.8-3.5-1.8 1.3-3.7 2.6-5.6 3.8-15.1 9.5-33.2 1.4-35.2-16.3-0.7-6.2-3.2-9.3-8-12.4-78.4-49.9-126.5-120.5-143.8-211.9-0.7-3.3-1.1-6.6-1.5-9.9-0.8-6.9-2.4-12.7-8.8-17.8-10-7.9-9.7-23-0.1-31.8 4.4-4 5.9-8.1 6.3-13.7 4-58.9 22.8-112.7 56.8-161 13.1-18.6 28.4-35.2 45.4-51.5z" />
	<path id="Layer" class="s2"
		d="m1386.2 132.3c-38.9 50.9-55.6 107.9-50.8 170.9 2.7 35.4 13.2 68.5 30.4 99.6 2.5 4.4 5.5 6.5 10.7 7.4 13.1 2.5 20.3 12.1 18.4 25.3-0.8 5.7 0.8 9.3 4.4 13.2 110.7 119.4 304.7 101.6 390.8-40.3 0.8-1.4 1.5-2.9 2.2-4.3-7.3-18.7-3.4-32 10.6-36.8 12.3-4.3 25.7 2.6 29.4 15.1 4.1 14.2-4.7 25.6-21.1 29.2-12.5 16.4-23.1 32.8-36.1 46.9-55.2 60.2-123.9 89.7-205.6 86.9-72.5-2.5-133.3-31.6-183-84.1-4.1-4.4-7.9-6.6-14.4-6.6-14.9 0-25.2-14-20.7-28.4 1.8-6.1 1.3-10.3-1.7-15.7-83.2-150.3-3.9-337.5 162.1-382.3 30.2-8.1 60.9-11.1 92-7.6 6.8 0.7 12.3 0.4 18.1-4.9 9-8.5 23.3-6.2 31.1 3.4 7.9 9.8 6.2 24.3-3.7 32.1-9.8 7.5-24.4 6.4-31.1-3.9-4.6-7-9.8-8.4-17.2-8.9-87.6-5.9-158.8 25.7-214.8 93.8z" />
	<path id="Layer" class="s3"
		d="m1677.2 241c0.4 2.9 1.1 5.8 1.1 8.8 0.1 33.2-0.1 66.5 0.2 99.8 0.1 6.4-1.8 10.2-7.6 13.5-29.2 16.5-58.3 33.3-87.2 50.3-5.5 3.2-9.7 3.7-15.5 0.3-29.4-17.4-59.2-34.4-88.9-51.5-4.2-2.3-6.3-5-6.3-10.1 0.2-36.6 0.2-73.1 0.2-109.7 0-0.7 0.3-1.3 1.4-1.9 3.7 1.9 6.3 4 9.1 5.7q39.7 23 79.5 45.9c12.7 7.3 12.7 7.2 25.7-0.4 29.4-16.9 58.9-33.8 88.3-50.7z" />
	<path id="Layer" class="s4"
		d="m1778.1 352.3c-25 66-70.4 109.6-136.7 131.3-5.4 1.7-9.7 3.8-13.1 9.2-7.1 11.5-21.9 13.7-32.1 4.8-4.9-4.2-9.7-4.7-15.4-4.7-100.3 0.3-186.6-69.5-207.3-167.7-17.9-85.6 20-174.2 94.7-220.9 5.7-3.5 10.1-6.7 11.9-14.3 2.8-11.9 16.6-17.9 28-14 11.7 3.9 18.1 16.1 14.7 28.1-3.3 11.5-15.8 18.4-27.7 15-3.2-0.9-6.1-2.5-9.1-3.8-71.1 37.8-118.7 128.1-90.5 222.4 28.8 95.9 118.9 141.8 191.6 136.4 9.8-18.7 26.2-22.9 42.8-6.7 81-18.7 141.7-99.6 141-177.6-2.6-1.8-5.6-3.4-8-5.6-9.4-8.3-10.2-22-2.2-31.4 7.9-9.3 21.9-10.6 31.4-2.9 9.6 7.7 11.9 22 3.5 31.1-5.2 5.5-6.1 11.2-6.4 18-1 18-5.1 35.5-11.1 53.3z" />
	<path id="Layer" class="s5"
		d="m1503.7 709.2c1.5-4.1 3.1-6.5 7.4-6.3 6 0.3 12 0 17.8 0 2.4 8.2 3.3 136.9 1.3 169.8-7 0-14 0-22.2 0q0-59.6 0-119.3-1.2-0.3-2.4-0.6c-6.7 12.7-11.9 26.1-17.8 39.1-6.3 13.6-12.3 27.4-18.4 41-5.9 13.4-11.9 26.7-17.9 40.2-5.4 0-10.3 0-16.2 0-18-40.1-36.2-80.7-54.3-121.2-3.1 13.2-2.1 26.2-2.3 39.2-0.2 13.7 0 27.3 0 41 0 13.3 0 26.6 0 40.7-7.5 0-14.6 0-22.2 0 0-56.4 0-112.6 0-169.3 8 0 15.5 0 23.9 0 20.6 45.9 41.4 92.2 63 140.4 20.7-46.1 40.3-90.1 60.3-134.7z" />
	<path id="Layer" fill-rule="evenodd" class="s6"
		d="m841.2 909.2c7.5-7.8 10.9-16.9 11.4-26.7 0.6-9.9 0.2-19.9 0.2-31.2-1.8 1.3-2.9 1.9-3.6 2.7-15.7 19.4-36.6 25.1-60.1 20.4-23.9-4.8-39.2-20.3-46.7-43.3-5.4-16.7-5.4-33.6-0.3-50.2 16.4-53 81.9-56.2 106.6-24.1 0.7 0.9 1.8 1.5 3.9 3.3 0-7.6 0-13.8 0-20.7 7.9 0 14.9 0 23 0 0 2.4 0 4.6 0 6.9 0 43.3 0 86.6-0.2 130 0 6.6-0.6 13.4-2.4 19.7-6.8 24.7-23.5 38.9-48.5 43.1-19.7 3.3-38.6 0.8-55.7-10.1-12.8-8-20.6-19.4-22.8-35.3 7.4 0 13.9 0 21.5 0 6.2 15.9 19 24.4 36 26.6 13.8 1.8 26.6-0.8 37.7-11.1zm11.7-101.4c-0.7-6.3-0.7-12.8-2.3-18.8-5.2-20-22.8-33.3-43.4-33.3-20.3-0.1-37.3 12.4-43.2 32.2-3.7 12.5-3.6 25 0.6 37.4 6.6 19.4 23.3 31.3 43.2 30.9 20.4-0.4 37.2-13.1 42.8-32.9 1.2-4.5 1.6-9.2 2.3-15.5z" />
	<path id="Layer" class="s7"
		d="m1677 240.3c-29.2 17.6-58.7 34.5-88.1 51.4-13 7.6-13 7.7-25.7 0.4q-39.8-22.9-79.5-45.9c-2.8-1.7-5.4-3.8-8.5-6.3 33.2-20 66.8-39.5 100.6-59.1 33.9 19.8 67.5 39.3 101.2 59.5z" />
	<path id="Layer" fill-rule="evenodd" class="s8"
		d="m651.7 872.7c-8.2 0.5-17.2 3.1-23.2-0.1-5.8-3-9-11.6-12.9-18.1-10-16.8-19.8-33.9-29.6-50.7-9.1 0-17.6 0-27.2 0 0 11.7 0 23 0 34.2 0 11.3 0 22.6 0 34.7-7.5 0-14.5 0-21.8 0 0-56.9 0-113.7 0-171.7 23.6 0.6 46.7-0.5 69.4 2.3 39.1 4.7 50.8 36.9 42.6 65.1-4.1 13.8-13.1 23.8-26.5 29.4-3.4 1.4-6.9 2.5-11.4 4.2 13.8 23.5 27.5 46.9 40.6 70.7zm-37.3-92.8c2-1.7 4.3-3.1 6-5.1 8.9-10.8 9.7-23.1 5.5-35.8-3.7-10.9-12.4-16.9-23.3-17.6-14.2-1-28.5-0.3-43.2-0.3 0 21.2 0 42.3 0 64.1 11.5 0 22.5 0.5 33.4-0.2 6.8-0.5 13.5-2.8 21.6-5.1z" />
	<path id="Layer" fill-rule="evenodd" class="s9"
		d="m338.6 865.5c-36.2-23.5-35.9-78-16-104.9 24.9-33.7 90.7-34.1 111.4 9.6 6.6 13.9 8.4 28.4 5.5 44.4-35.6 0-70.8 0-105.9 0-1.7 17.8 9.8 34.2 27.3 40 22 7.2 40.9-0.4 53.3-22.1 7.2 0 14.7 0 23 0-0.7 2.6-1 4.9-1.8 6.8-7.3 17-19.8 28.5-37.5 33.4-20.2 5.7-40.2 4.5-59.3-7.2zm33.4-69.1c14.8 0 29.7 0 44.4 0 2-23.4-15.7-40.9-40.5-41.2-24.1-0.4-43.2 17.7-42.4 41.2 12.1 0 24.3 0 38.5 0z" />
	<path id="Layer" class="s10"
		d="m913.5 695.8c0.1-4 2-4.8 4.7-4.7 5.6 0 11.2 0 18 0 0 21.1 0 41.5 0 63.9 2.7-1.9 3.7-2.4 4.4-3.2 15.8-15.6 35-18.5 55.6-13.9 22.1 5 36.6 21.7 38 46.9 1.5 29.2 0.3 58.5 0.3 88.3-7.2 0-14 0-21.8 0 0-3.6 0-6.9 0-10.2 0-20.9 0.1-41.9-0.1-62.9 0-4.6-0.3-9.3-1.1-13.9-3.6-20.1-17.7-31.3-38-30.6-20.1 0.7-34 13.1-36.4 32.8-0.7 6-0.7 12-0.7 18-0.1 21.9-0.1 43.9-0.1 66.6-7.7 0-14.8 0-22.8 0 0-59 0-117.6 0-177.1z" />
	<path id="Layer" class="s5"
		d="m159.3 793c0.1-33.6 0.1-66.3 0.2-98.9 0-0.6 0.4-1.2 0.9-2.4 6.6 0 13.4 0 21.4 0 0 20.4 0 40.9 0 63.1 2.9-1.9 4.1-2.6 5.2-3.5 18.1-16.8 39.2-19.1 61.4-11.2 21.3 7.5 30.9 25.2 31.8 46.5 1.2 28.6 0.3 57.2 0.3 86.4-7.2 0-14 0-21.5 0-0.2-3.1-0.4-6-0.4-8.9 0-21 0.1-42-0.1-63-0.1-5.9-0.4-12-1.7-17.8-3.3-14.7-12.3-23.9-27.4-26.9-25.2-4.9-44.7 9-46.6 34.7-1.3 17.6-0.7 35.3-0.8 52.9-0.1 9.3-0.1 18.6-0.1 28.8-7.4 0-14.5 0-22.6 0 0-26.4 0-52.6 0-79.8z" />
	<path id="Layer" fill-rule="evenodd" class="s5"
		d="m1695.9 817.7c-8.9 56-67.8 69.8-103.2 49.3-24.9-14.5-33.5-37.7-32.3-65.3 1.2-27.2 13.2-48 38.6-59.4 32.2-14.4 81.6-4.9 94.9 41.9 3.1 10.7 3.8 21.6 2 33.5zm-106.9 15.8c11 17.9 26.2 25 46.3 21.8 18.6-2.9 33-15.8 36.7-34.8 1.7-8.6 1.8-18 0.6-26.8-3-22.2-21-37.4-43.4-38-22.3-0.7-39.6 13-44.5 35.3-3.1 14.1-2.3 27.8 4.3 42.5z" />
	<path id="Layer" fill-rule="evenodd" class="s5"
		d="m2163 801.3c-1 9.5-0.9 18.4-3.1 26.6-8.5 30.7-36.5 49.5-70 47.8-28.7-1.5-50.8-17.6-59.4-44-5.7-17.3-5.9-34.8 0.3-52 9.4-26.1 28.7-40 56-42.9 12.5-1.3 24.8-0.2 36.3 4.9 25.4 11.3 37.7 31.6 39.9 59.6zm-105.5 35.9c11.3 16.5 27.4 21.4 46.2 17.7 18.4-3.6 29.7-15.5 34.5-33.4 2.7-9.7 2.4-19.7 0.5-29.6-4.1-21.1-21.2-35.4-43-36.2-20.7-0.8-38.5 11.8-43.9 31.9-4.5 16.6-3.7 32.9 5.7 49.6z" />
	<path id="Layer" class="s11"
		d="m1726.5 807c0-23 0-45 0-67.6 7.4 0 14.2 0 21.9 0 0.3 4.6 0.6 9.4 0.9 15.6 2.8-2.4 4.8-4.2 6.9-6 18-14.9 38.3-16.3 59.2-8.7 20.3 7.5 30.6 23.8 31.4 44.7 1.1 28.6 0.4 57.3 0.4 86 0 0.6-0.5 1.2-0.9 2-6.8 0-13.7 0-21.1 0 0-10.2 0-19.9 0-29.5-0.1-17 0.4-34-0.2-51-1.1-29.1-27-45.2-53.9-33.8-15.9 6.7-21.6 20.2-22 36.1-0.5 22.3-0.2 44.7-0.2 67 0 3.6 0 7.2 0 11.3-7.7 0-14.5 0-22.4 0 0-22 0-43.5 0-66.1z" />
	<path id="Layer" class="s8"
		d="m1159.1 761.8c6-12.7 15.9-19.5 28.3-22.9 13.2-3.7 26.4-3.6 39.5 0.3 18.3 5.6 29.1 19.7 29.8 39.2-3.5 0.1-6.9 0.3-10.4 0.4-3.3 0.1-6.7 0-9.6 0-0.8-0.9-1.5-1.3-1.6-1.8-4.1-22.7-30.7-25.3-44.9-18.6-6.2 2.8-10.3 7.3-10.9 14.3-0.6 7.1 2.8 12.5 8.7 15.7 5.2 2.8 10.9 4.9 16.6 6.8 10.3 3.5 21 6.3 31.2 10.3 9.9 3.8 17.8 10.5 21.2 21.1 4.6 14.6-0.4 29.5-13.1 39-20.8 15.7-59.5 13.2-77.9-5.2-6.9-6.9-11.8-15-11.2-25.9 7.5 0 14.4 0 21.2 0 9.5 19.6 26.2 27.2 45.6 20.4 3.9-1.4 7.9-3.9 10.7-6.9 7.4-8.1 5.4-19.4-4.3-24.4-5.2-2.8-11-4.6-16.7-6.4-7-2.3-14.1-4-21.1-6.2-4.1-1.3-8.2-2.7-12.1-4.6-18.3-8.8-25-24.1-19-44.6z" />
	<path id="Layer" class="s12"
		d="m62.6 753c0-11.2 0-21.5 0-32.9-16.1 0-31.3 0-46.9 0 0-6.4 0-11.6 0-16.8 7.2-2.3 88.5-3.2 115.3-1.2 0 5.6 0 11.3 0 18.1-15.3 0-30.1 0-45.9 0 0 51.5 0 102 0 152.9-7.8 0-14.7 0-22.5 0 0-40 0-79.5 0-120.1z" />
	<path id="Layer" class="s12"
		d="m1977.5 851.1c10 2 19.4 3.5 29.5 5.1 0 4.8 0 10.4 0 17.3-12-0.3-24.1 1.4-36.1-2.1-11.5-3.3-17.9-11.2-19.8-22.7-1-5.6-1.2-11.3-1.3-16.9-0.1-21.4 0-42.7-0.1-64 0-3.3-0.2-6.5-0.4-10.3-5.5-0.3-10.4-0.5-16-0.8 0-5.8 0-11.5 0-17.7 5.1-0.2 10-0.5 16.1-0.8 0-11 0-21.8 0-33 8.4 0 15.5 0 23.4 0 0 11.3 0 21.9 0 33.2 11.6 0 22.5 0 34 0 0 6.5 0 12.3 0 18.8q-16.9 0-32.7 0c-0.7 1.3-1.2 1.8-1.2 2.4-0.1 26.3-0.3 52.7 0 79 0 4 2.5 7.9 4.6 12.5z" />
	<path id="Layer" class="s11"
		d="m1085.3 704.6c4.8 0 8.8 0 13.5 0 0 11.3 0 21.9 0 33.5 11.8 0 23 0 34.9 0 0 6.6 0 12.1 0 18.6-11.2 0-22.3 0-34 0-0.3 3.6-0.6 6.2-0.7 8.7 0 23 0 46 0 69 0 1.7 0 3.4 0.1 5 0.8 9.6 4.6 14.1 14.1 15 6.6 0.6 13.3 0.1 20.6 0.1 0 6.5 0 12 0 18.9-11.4 0-22.9 1.2-34.3-1.4-13.2-3.1-20.3-12.1-22.2-25.2-0.6-4.3-0.6-8.7-0.6-13-0.1-22 0-44 0-66 0-3.2 0-6.5 0-10.2-6.2-0.4-11.4-0.7-17.1-1 0-5.8 0-11.3 0-17.4 5.4-0.3 10.6-0.7 16.8-1 0-11.2 0-22 0-33 3.4-0.3 5.7-0.4 8.9-0.6z" />
	<path id="Layer" class="s13"
		d="m2192.7 856.8c0-39.5 0-78.1 0-117.4 7.4 0 14.2 0 21.9 0 0 5.3 0 10.7 0 17.2 7.4-5.7 13.3-11.2 20.1-15.4 6.9-4.3 14.9-5.2 23.6-4.7 0 7.6 0 14.7 0 21.9-6 0.7-11.6 1.1-17.1 2.2-13.1 2.5-21 10.8-24.1 23.6-1.3 5.5-1.8 11.2-1.9 16.8-0.2 20.6-0.1 41.3-0.1 61.9 0 3.3 0 6.5 0 10.2-7.8 0-14.7 0-22.4 0 0-5.4 0-10.3 0-16.3z" />
	<path id="Layer" class="s11"
		d="m686.4 845c0-35.7 0-70.3 0-105.6 7.4 0 14.2 0 21.7 0 0 44.3 0 88.7 0 133.7-7 0-13.9 0-21.7 0 0-9.3 0-18.2 0-28.1z" />
	<path id="Layer" class="s13"
		d="m1884.4 751.4c0-4.5 0-8.2 0-12.3 7.6 0 14.5 0 21.9 0 0 44.8 0 89.2 0 134-7.2 0-14 0-21.9 0 0-40.5 0-80.6 0-121.7z" />
	<path id="Layer" class="s14"
		d="m1737.5 191.3c-1.4 2.8-2.3 5.6-4.2 6.8-6.2 4-12.6 7.4-19.4 11.3-6.6-3.9-13.4-7.4-19.8-11.6-1.8-1.2-2.7-4-3.9-6.2-0.3-0.5 0-1.3 0-2-1-22.8-0.9-22.8 24.3-34.7 6.2 3.6 13 7.1 19.3 11.3 1.9 1.2 3.4 4.1 3.6 6.3 0.4 6 0.1 12 0.1 18.8z" />
	<path id="Layer" class="s1"
		d="m1715 70.1c1.7-3 3-5.9 5.2-7.3 14.1-9.3 16.2-9.2 29.9 0.4 0.3 0.2 0.7 0.3 0.9 0.6 1.1 1.9 3 3.7 3.2 5.7 0.5 5 0.5 10 0 15-0.2 2-1.6 4.4-3.2 5.6-4.1 2.9-8.5 5.4-13 7.5-1.8 0.8-4.3 0.3-6.5 0.3-0.6 0-1.1-0.6-1.7-0.9-14.9-7.4-14.9-7.4-14.8-26.9z" />
	<path id="Layer" class="s12"
		d="m1890.9 686.8c12.3-3.8 21.1 7.2 19.7 16.4-0.9 6.6-5.7 11.8-12.1 13.1-5.8 1.2-12.1-1.6-15.5-6.8-3.4-5.2-3.2-12.9 0.9-17.7 1.7-1.9 4.2-3.2 7-5z" />
	<path id="Layer" class="s12"
		d="m710.9 708.4c-3.7 5.9-8.5 8.6-14.7 8.1-8-0.7-13.7-7.5-13.5-15.8 0.2-8.2 6.4-14.4 14.5-14.7 8-0.2 14.9 5.8 15.4 14 0.1 2.5-0.9 5.2-1.7 8.4z" />
	<path id="Layer" class="s12"
		d="m1801.3 122.1c-4.2-2-6.8-4.1-6.3-8.6 0.4-3.6 0.1-7.3 0.1-10.5 17.3-11.6 12.7-9.7 27.8-0.9 0.1 2.2 0.4 4.8 0.4 7.4 0.1 2.7 0.1 5.3 0.1 9q-6.3 3.7-13.6 8c-2.7-1.3-5.3-2.7-8.5-4.4z" />
	<path id="Layer" class="s12"
		d="m1829.7 45.3c-3.9 2.7-7 3.7-10.6 1-2.9-2.2-6.2-3.8-9.1-5.6-1.3-18.4-3.2-15.6 13.7-23.9 14.4 6.6 14.4 6.6 13.7 23.7-2.1 1.3-4.6 2.9-7.7 4.8z" />
	<path id="Layer" class="s15"
		d="m852.9 808.6c-0.7 5.5-1.1 10.2-2.3 14.7-5.6 19.8-22.4 32.5-42.8 32.9-19.9 0.4-36.6-11.5-43.2-30.9-4.2-12.4-4.3-24.9-0.6-37.4 5.9-19.8 22.9-32.3 43.2-32.2 20.6 0 38.2 13.3 43.4 33.3 1.6 6 1.6 12.5 2.3 19.6z" />
	<path id="Layer" class="s16"
		d="m613.7 780.3c-7.4 1.9-14.1 4.2-20.9 4.7-10.9 0.7-21.9 0.2-33.4 0.2 0-21.8 0-42.9 0-64.1 14.7 0 29-0.7 43.2 0.3 10.9 0.7 19.6 6.7 23.3 17.6 4.2 12.7 3.4 25-5.5 35.8-1.7 2-4 3.4-6.7 5.5z" />
	<path id="Layer" class="s17"
		d="m371 796.4c-13.2 0-25.4 0-37.5 0-0.8-23.5 18.3-41.6 42.4-41.2 24.8 0.3 42.5 17.8 40.5 41.2-14.7 0-29.6 0-45.4 0z" />
	<path id="Layer" class="s18"
		d="m1588.7 832.8c-6.3-14-7.1-27.7-4-41.8 4.9-22.3 22.2-36 44.5-35.3 22.4 0.6 40.4 15.8 43.4 38 1.2 8.8 1.1 18.2-0.6 26.8-3.7 19-18.1 31.9-36.7 34.8-20.1 3.2-35.3-3.9-46.6-22.5z" />
	<path id="Layer" class="s15"
		d="m2057.1 836.6c-9-16.1-9.8-32.4-5.3-49 5.4-20.1 23.2-32.7 43.9-31.9 21.8 0.8 38.9 15.1 43 36.2 1.9 9.9 2.2 19.9-0.5 29.6-4.8 17.9-16.1 29.8-34.5 33.4-18.8 3.7-34.9-1.2-46.6-18.3z" />
</svg>